      <svg
        width="953" 
        height="742"
        viewBox="0 0 953 742"
        fill="none"
        xmlns="http://www.w3.org/2000/svg"
      >
        <g filter="url(#filter0_d_82_2)">
          <g clip="url(#clip0_82_2)">
            <path
              d="M680.138 204.676C680.136 206.857 680.25 209.036 680.479 211.205C679.243 252.107 665.72 291.69 641.669 324.798C632.44 337.512 621.788 349.131 609.921 359.426C572.695 391.645 525.11 409.378 475.878 409.378C426.645 409.378 379.06 391.645 341.834 359.426C353.739 349.137 364.427 337.518 373.689 324.798C395.91 343.732 422.951 356.129 451.8 360.606C480.649 365.084 510.174 361.468 537.09 350.16C564.005 338.852 587.255 320.296 604.249 296.557C621.244 272.819 631.317 244.831 633.348 215.707C633.59 212.094 633.718 208.438 633.732 204.74C633.746 201.042 633.618 197.386 633.348 193.773C631.592 168.114 623.546 143.28 609.921 121.466C595.744 98.6889 575.998 79.9002 552.545 66.8727C529.092 53.8453 502.706 47.009 475.878 47.009C449.049 47.009 422.663 53.8453 399.21 66.8727C375.757 79.9002 356.011 98.6889 341.834 121.466C328.253 143.271 320.238 168.08 318.493 193.709C318.237 197.315 318.109 200.985 318.109 204.655C318.109 208.325 318.237 211.994 318.493 215.6C316.492 235.717 309.048 254.909 296.959 271.113C284.87 287.317 268.595 299.92 249.881 307.568C231.167 315.217 210.723 317.621 190.746 314.524C170.768 311.426 152.012 302.942 136.494 289.985C120.976 277.028 109.282 260.088 102.668 240.984C96.0548 221.88 94.7723 201.335 98.9584 181.557C103.145 161.778 112.641 143.515 126.427 128.728C140.214 113.942 157.769 103.192 177.206 97.6335C180.782 96.6247 184.543 96.4583 188.195 97.1474C191.846 97.8365 195.288 99.3625 198.25 101.605C201.212 103.848 203.614 106.747 205.268 110.075C206.922 113.402 207.782 117.067 207.78 120.783V121.039C207.774 126.302 206.056 131.419 202.884 135.619C199.712 139.818 195.26 142.871 190.2 144.317C175.987 148.468 163.694 157.498 155.482 169.819C147.271 182.14 143.668 196.961 145.306 211.677C146.945 226.392 153.721 240.058 164.442 250.271C175.162 260.483 189.141 266.588 203.919 267.511C220.201 268.481 236.24 263.198 248.758 252.741C261.277 242.284 269.332 227.443 271.276 211.248C271.738 206.9 271.738 202.516 271.276 198.169C272.52 157.281 286.044 117.714 310.086 84.6186C319.315 71.9038 329.967 60.2856 341.834 49.9903C379.06 17.7714 426.645 0.0385742 475.878 0.0385742C525.11 0.0385742 572.695 17.7714 609.921 49.9903C633.954 70.8178 652.821 96.9442 665.032 126.309C674.506 149.161 679.741 173.548 680.479 198.275C680.255 200.402 680.141 202.538 680.138 204.676Z"
              fill="#FFFFFE"
            />
            <path
              d="M587.496 193.73C584.769 166.263 571.929 140.791 551.471 122.263C531.012 103.734 504.396 93.4732 476.794 93.4732C449.192 93.4732 422.576 103.734 402.118 122.263C381.659 140.791 368.819 166.263 366.092 193.73C366.334 197.343 366.462 200.998 366.477 204.697C366.491 208.395 366.363 212.05 366.092 215.663C364.348 241.287 356.333 266.088 342.751 287.886C328.714 310.498 309.184 329.192 285.979 342.226C262.774 355.261 236.649 362.213 210.035 362.435C183.421 362.657 157.183 356.142 133.764 343.497C110.345 330.852 90.5054 312.487 76.0927 290.112C61.6801 267.737 53.1625 242.079 51.3329 215.527C49.5033 188.975 54.4212 162.392 65.6287 138.251C76.8362 114.111 93.9689 93.1984 115.432 77.4604C136.896 61.7224 161.992 51.6704 188.385 48.2401C194.011 47.4763 199.169 44.6989 202.904 40.4227C206.639 36.1466 208.697 30.6615 208.697 24.984C208.699 21.65 207.992 18.3538 206.621 15.3148C205.249 12.2759 203.247 9.56388 200.746 7.35948C198.244 5.15507 195.302 3.50882 192.115 2.5304C188.928 1.55198 185.569 1.26383 182.262 1.68512C146.638 6.3349 112.865 20.2805 84.3396 42.1201C55.8137 63.9596 33.5396 92.9236 19.7561 126.101C5.97269 159.277 1.16563 195.498 5.81821 231.122C10.4708 266.745 24.4191 300.517 46.2609 329.041C68.1027 357.565 97.0684 379.837 130.246 393.618C163.424 407.398 199.646 412.203 235.269 407.547C270.892 402.892 304.662 388.941 333.185 367.097C361.707 345.253 383.977 316.285 397.755 283.106C412.624 298.077 431.443 308.51 452.017 313.189C472.591 317.868 494.072 316.599 513.952 309.531C533.833 302.463 551.293 289.886 564.296 273.27C577.299 256.653 585.308 236.681 587.389 215.685C587.161 212.058 587.048 208.388 587.048 204.675C587.048 200.963 587.197 197.314 587.496 193.73ZM478.853 267.574C466.237 267.99 453.787 264.602 443.121 257.85C432.456 251.098 424.068 241.294 419.047 229.713C414.027 218.131 412.606 205.307 414.97 192.907C417.333 180.507 423.372 169.105 432.301 160.182C441.23 151.259 452.637 145.228 465.038 142.873C477.44 140.518 490.263 141.948 501.841 146.977C513.42 152.005 523.218 160.4 529.962 171.07C536.707 181.741 540.086 194.193 539.661 206.809C539.128 222.768 532.547 237.928 521.251 249.216C509.956 260.503 494.792 267.073 478.832 267.595L478.853 267.574Z"
              fill="#FFFFFE"
            />
            <path
              d="M855.199 203.076C855.557 227.5 847.869 251.364 833.321 270.986C818.773 290.609 798.173 304.899 774.699 311.655C771.104 312.671 767.322 312.84 763.651 312.147C759.98 311.455 756.519 309.92 753.542 307.664C750.564 305.408 748.15 302.492 746.49 299.146C744.83 295.799 743.969 292.113 743.975 288.377C744.001 283.104 745.741 277.983 748.931 273.784C752.121 269.586 756.589 266.538 761.662 265.099C776.171 260.868 788.672 251.555 796.88 238.865C805.087 226.174 808.452 210.953 806.36 195.985C804.267 181.017 796.857 167.303 785.484 157.349C774.112 147.395 759.536 141.868 744.423 141.777C740.532 141.749 736.647 142.078 732.816 142.759L731.365 143.036C718.127 145.668 706.066 152.436 696.92 162.363C687.775 172.291 682.018 184.865 680.479 198.275C679.728 173.584 674.494 149.234 665.031 126.416C680.464 110.876 700.14 100.238 721.592 95.8339C743.045 91.4296 765.321 93.4553 785.627 101.657C805.934 109.859 823.368 123.872 835.744 141.94C848.12 160.008 854.888 181.327 855.199 203.225V203.076Z"
              fill="#FFFFFE"
            />
            <path
              d="M948.671 204.676C948.65 254.383 930.555 302.387 897.757 339.739C864.959 377.091 819.697 401.241 770.409 407.687C767.102 408.109 763.742 407.82 760.555 406.842C757.368 405.864 754.426 404.217 751.925 402.013C749.424 399.809 747.421 397.096 746.05 394.058C744.679 391.019 743.971 387.722 743.973 384.388C743.973 378.711 746.032 373.226 749.766 368.95C753.501 364.673 758.659 361.896 764.285 361.132C788.635 357.975 811.911 349.178 832.262 335.441C852.612 321.704 869.476 303.407 881.51 282.005C893.544 260.603 900.417 236.688 901.58 212.162C902.744 187.637 898.168 163.178 888.215 140.733C878.261 118.288 863.207 98.4754 844.248 82.8729C825.29 67.2705 802.951 56.3085 779.01 50.8595C755.07 45.4105 730.187 45.6249 706.344 51.4855C682.501 57.3462 660.354 68.6913 641.667 84.618C632.439 71.9032 621.787 60.285 609.92 49.9898C639.578 24.3004 675.994 7.6755 714.833 2.09437C753.671 -3.48677 793.296 2.21101 828.988 18.5093C864.68 34.8077 894.937 61.0199 916.155 94.0252C937.374 127.03 948.66 165.438 948.671 204.676Z"
              fill="#FFFFFE"
            />
            <path
              d="M287.917 675.454C287.952 683.165 286.413 690.803 283.394 697.899C280.511 704.781 276.364 711.063 271.168 716.418C265.934 721.745 259.727 726.018 252.884 729.007C245.817 732.139 238.168 733.739 230.438 733.701H146.46C143.944 733.737 141.446 733.26 139.121 732.299C136.795 731.338 134.689 729.913 132.933 728.111C131.15 726.357 129.735 724.267 128.769 721.961C127.802 719.655 127.305 717.18 127.305 714.68C127.305 712.179 127.802 709.704 128.769 707.398C129.735 705.092 131.15 703.002 132.933 701.249C134.689 699.447 136.795 698.022 139.121 697.061C141.446 696.1 143.944 695.622 146.46 695.659H229.819C232.461 695.69 235.081 695.175 237.515 694.147C239.949 693.119 242.145 691.6 243.965 689.685C245.871 687.837 247.38 685.62 248.399 683.17C249.419 680.719 249.929 678.086 249.896 675.432C249.948 672.731 249.449 670.048 248.429 667.546C247.409 665.044 245.89 662.776 243.965 660.881C242.145 658.966 239.949 657.446 237.515 656.418C235.081 655.39 232.461 654.876 229.819 654.907H190.199C182.364 654.961 174.601 653.407 167.39 650.341C153.393 644.452 142.257 633.316 136.368 619.319C133.356 612.088 131.805 604.333 131.805 596.5C131.805 588.667 133.356 580.911 136.368 573.681C139.299 566.75 143.536 560.448 148.85 555.119C154.163 549.818 160.404 545.537 167.262 542.488C174.392 539.317 182.118 537.71 189.921 537.773H228.603C231.119 537.738 233.616 538.215 235.942 539.176C238.267 540.137 240.373 541.562 242.13 543.363C243.915 545.114 245.333 547.204 246.301 549.511C247.269 551.817 247.768 554.293 247.768 556.794C247.768 559.295 247.269 561.771 246.301 564.077C245.333 566.383 243.915 568.473 242.13 570.225C240.379 572.041 238.277 573.482 235.952 574.461C233.626 575.441 231.126 575.937 228.603 575.921H189.729C184.418 576.055 179.373 578.279 175.69 582.109C171.975 585.995 169.901 591.165 169.901 596.542C169.901 601.92 171.975 607.089 175.69 610.976C177.516 612.928 179.733 614.472 182.196 615.509C184.659 616.545 187.313 617.051 189.985 616.993H229.542C237.392 616.943 245.164 618.55 252.35 621.708C259.264 624.719 265.558 628.987 270.912 634.296C276.223 639.603 280.461 645.884 283.394 652.795C286.432 659.96 287.971 667.671 287.917 675.454Z"
              fill="#FFFFFE"
            />
            <path
              d="M387.706 539.651C409.593 536.052 432.053 539.974 451.426 550.776C470.799 561.579 485.942 578.625 494.385 599.136C503.122 620.776 503.878 644.817 496.519 666.963C493.221 676.707 488.451 685.888 482.373 694.188C472.613 707.43 459.627 717.955 444.651 724.762C429.83 731.715 413.497 734.826 397.157 733.809C388.651 733.206 380.262 731.47 372.216 728.645C356.208 723.063 341.874 713.521 330.547 700.909C324.847 694.594 320.038 687.531 316.252 679.914C312.613 672.45 309.904 664.568 308.186 656.444C306.463 648.401 305.796 640.167 306.202 631.951C306.608 623.703 307.983 615.532 310.299 607.606C312.625 599.615 316.058 591.988 320.497 584.947C322.003 582.174 323.729 579.527 325.661 577.032H325.959C333.304 567.058 342.613 558.693 353.312 552.453C363.939 546.206 375.58 541.873 387.706 539.651ZM453.42 670.163C461.942 657.676 465.523 642.469 463.469 627.491C462.442 620.55 460.173 613.85 456.77 607.713C452.759 600.469 447.392 594.066 440.96 588.852C434.555 583.628 427.071 579.89 419.048 577.907C411.133 575.678 402.834 575.162 394.704 576.392C386.48 577.579 378.599 580.487 371.576 584.926C362.512 590.723 355.149 598.822 350.24 608.396C345.21 617.929 342.893 628.659 343.54 639.418C343.886 647.704 346.073 655.808 349.941 663.144C350.951 664.964 351.911 666.842 352.821 668.777C353.749 670.73 354.819 672.612 356.022 674.409C354.201 671.365 352.48 668.222 350.858 664.979C354.108 670.864 358.328 676.159 363.34 680.639C368.418 685.203 374.177 688.946 380.409 691.734C386.847 694.563 393.758 696.162 400.785 696.449C407.802 696.771 414.818 695.794 421.48 693.569C427.934 691.559 434.001 688.471 439.424 684.437C444.822 680.448 449.541 675.614 453.399 670.121L453.42 670.163Z"
              fill="#FFFFFE"
            />
            <path
              d="M666.353 675.454C666.356 683.173 664.78 690.811 661.724 697.899C658.841 704.781 654.694 711.063 649.498 716.418C644.264 721.745 638.057 726.018 631.213 729.007C624.147 732.139 616.497 733.739 608.768 733.701H524.896C522.38 733.737 519.882 733.26 517.557 732.299C515.231 731.338 513.126 729.913 511.369 728.111C509.587 726.357 508.171 724.267 507.205 721.961C506.238 719.655 505.741 717.18 505.741 714.68C505.741 712.179 506.238 709.704 507.205 707.398C508.171 705.092 509.587 703.002 511.369 701.249C513.126 699.447 515.231 698.022 517.557 697.061C519.882 696.1 522.38 695.622 524.896 695.659H608.256C610.898 695.69 613.518 695.175 615.952 694.147C618.386 693.119 620.581 691.6 622.401 689.685C624.307 687.837 625.816 685.62 626.836 683.17C627.855 680.719 628.365 678.086 628.333 675.432C628.384 672.731 627.885 670.048 626.865 667.546C625.846 665.044 624.327 662.776 622.401 660.881C620.581 658.966 618.386 657.446 615.952 656.418C613.518 655.39 610.898 654.876 608.256 654.907H568.699C560.864 654.961 553.101 653.407 545.891 650.341C531.893 644.452 520.757 633.316 514.868 619.319C511.856 612.088 510.305 604.333 510.305 596.5C510.305 588.667 511.856 580.911 514.868 573.681C517.799 566.75 522.036 560.448 527.35 555.119C532.663 549.818 538.904 545.537 545.763 542.488C552.893 539.317 560.619 537.71 568.421 537.773H607.061C609.577 537.738 612.074 538.215 614.399 539.176C616.725 540.137 618.83 541.562 620.588 543.363C622.373 545.114 623.791 547.204 624.759 549.511C625.727 551.817 626.225 554.293 626.225 556.794C626.225 559.295 625.727 561.771 624.759 564.077C623.791 566.383 622.373 568.473 620.588 570.225C618.82 572.029 616.703 573.456 614.367 574.417C612.03 575.378 609.523 575.853 606.997 575.815H568.165C562.854 575.949 557.809 578.172 554.126 582.002C550.411 585.889 548.337 591.059 548.337 596.436C548.337 601.813 550.411 606.983 554.126 610.87C555.952 612.821 558.169 614.365 560.632 615.402C563.095 616.439 565.75 616.945 568.421 616.886H607.978C615.828 616.837 623.6 618.443 630.786 621.602C637.7 624.612 643.994 628.881 649.349 634.19C654.626 639.518 658.827 645.813 661.724 652.731C664.807 659.908 666.383 667.642 666.353 675.454Z"
              fill="#FFFFFE"
            />
            <path
              d="M826.97 701.612C828.743 703.385 830.142 705.496 831.084 707.819C832.025 710.143 832.491 712.632 832.454 715.139C832.476 717.622 832.004 720.085 831.064 722.384C830.124 724.682 828.736 726.77 826.98 728.526C825.224 730.282 823.136 731.671 820.837 732.611C818.539 733.55 816.076 734.023 813.593 734H791.062C778.036 734.07 765.138 731.425 753.191 726.234C741.592 721.244 731.033 714.123 722.062 705.239C713.115 696.328 705.941 685.801 700.918 674.217C695.759 662.205 693.099 649.269 693.099 636.196C693.099 623.123 695.759 610.187 700.918 598.176C705.94 586.591 713.115 576.064 722.062 567.153C731.024 558.231 741.584 551.073 753.191 546.052C765.138 540.86 778.036 538.215 791.062 538.286H813.571C816.054 538.263 818.517 538.735 820.816 539.675C823.114 540.615 825.203 542.003 826.959 543.759C828.715 545.515 830.103 547.603 831.043 549.902C831.983 552.201 832.455 554.663 832.432 557.147C832.471 559.654 832.006 562.143 831.064 564.467C830.122 566.791 828.723 568.901 826.949 570.674C825.234 572.492 823.159 573.933 820.855 574.903C818.551 575.873 816.07 576.351 813.571 576.306H791.062C783.059 576.244 775.132 577.85 767.784 581.022C760.717 584.088 754.273 588.428 748.774 593.823C743.261 599.252 738.868 605.711 735.844 612.833C732.699 620.136 731.094 628.01 731.129 635.961C731.095 643.854 732.638 651.674 735.668 658.961C738.698 666.249 743.154 672.857 748.774 678.399C754.27 683.798 760.715 688.138 767.784 691.2C775.13 694.376 783.059 695.982 791.062 695.915H813.571C816.079 695.877 818.566 696.364 820.874 697.345C823.181 698.327 825.258 699.78 826.97 701.612Z"
              fill="#FFFFFE"
            />
          </g>
        </g>
        <defs>
          <filter
            id="filter0_d_82_2"
            x="0"
            y="0"
            width="952.671"
            height="742"
            filterUnits="userSpaceOnUse"
            colorInterpolationFilters="sRGB"
          >
            <feFlood floodOpacity="0" result="BackgroundImageFix" />
            <feColorMatrix
              in="SourceAlpha"
              type="matrix"
              values="0 0 0 0 0 0 0 0 0 0 0 0 0 0 0 0 0 0 127 0"
              result="hardAlpha"
            />
            <feOffset dy="4" />
            <feGaussianBlur stdDeviation="2" />
            <feComposite in2="hardAlpha" operator="out" />
            <feColorMatrix
              type="matrix"
              values="0 0 0 0 0 0 0 0 0 0 0 0 0 0 0 0 0 0 0.25 0"
            />
            <feBlend
              mode="normal"
              in2="BackgroundImageFix"
              result="effect1_dropShadow_82_2"
            />
            <feBlend
              mode="normal"
              in="SourceGraphic"
              in2="effect1_dropShadow_82_2"
              result="shape"
            />
          </filter>
          <clipPath id="clip0_82_2">
            <rect
              width="944.671"
              height="734"
              fill="white"
              transform="translate(4)"
            />
          </clipPath>
        </defs>
      </svg>