<?xml version="1.0" encoding="UTF-8"?>
<svg version="1.1" xmlns="http://www.w3.org/2000/svg" width="3076" height="2549">
<path d="M0 0 C0.67085255 -0.00044186 1.34170509 -0.00088371 2.03288651 -0.00133896 C25.42585709 -0.00939051 48.60986869 0.69482013 71.875 3.25 C73.04920502 3.37728485 73.04920502 3.37728485 74.24713135 3.50714111 C148.33225176 11.60923119 219.93113829 32.10453004 429.078125 154.9453125 C431.91556846 157.28342932 434.78505144 159.26621646 437.875 161.25 C438.78765625 160.50169922 438.78765625 160.50169922 439.71875 159.73828125 C442.18007741 157.72216454 444.64382949 155.70903884 447.10791016 153.69628906 C448.94323998 152.19414843 450.77437196 150.68698416 452.60546875 149.1796875 C491.19836716 117.49837369 533.6677269 90.17603832 578.59375 68.36181641 C581.22455394 67.07963734 583.84602352 65.77908751 586.46875 64.48046875 C610.59324676 52.62273066 635.44896178 42.93549905 660.875 34.25 C662.41607422 33.7226123 662.41607422 33.7226123 663.98828125 33.18457031 C716.22426822 15.48463309 770.91694398 5.26476316 825.875 1.25 C827.67916382 1.10860596 827.67916382 1.10860596 829.51977539 0.96435547 C843.80822536 -0.03112575 858.1202584 0.00424529 872.4375 0 C873.46345842 -0.00066278 873.46345842 -0.00066278 874.51014328 -0.00133896 C898.0712094 -0.00929871 921.44229517 0.63213441 944.875 3.25 C945.63977661 3.33485657 946.40455322 3.41971313 947.19250488 3.50714111 C1027.67050127 12.54921161 1104.51948448 35.99738848 1176.875 72.25 C1178.02548828 72.82395508 1179.17597656 73.39791016 1180.36132812 73.98925781 C1228.2087085 97.96994309 1274.25341963 129.12288946 1313.765625 165.3203125 C1315.71289502 167.10170396 1317.69024471 168.8375977 1319.6875 170.5625 C1330.08454099 179.67520063 1339.96723617 189.23867134 1349.75 199 C1350.29574677 199.54315857 1350.84149353 200.08631714 1351.40377808 200.64593506 C1357.44851728 206.6680875 1363.33020242 212.75875959 1368.875 219.25 C1370.49467817 221.02570221 1372.11911718 222.79708307 1373.75 224.5625 C1377.76880593 228.97353173 1381.60365324 233.48735358 1385.34765625 238.1328125 C1387.22547916 240.46237942 1389.13524117 242.76257397 1391.05859375 245.0546875 C1399.78058236 255.47460928 1407.9756264 266.19463162 1415.875 277.25 C1416.52259277 278.15556641 1417.17018555 279.06113281 1417.83740234 279.99414062 C1427.40021502 293.42326349 1436.44546679 307.08194757 1444.875 321.25 C1445.46104004 322.23274902 1446.04708008 323.21549805 1446.65087891 324.22802734 C1467.63633474 359.59044441 1485.98155256 396.51091868 1499.875 435.25 C1500.22371155 436.21909302 1500.22371155 436.21909302 1500.57946777 437.20776367 C1526.070534 508.14641173 1539.91534413 582.06695616 1510.875 866.25 C1510.49649902 867.46929199 1510.11799805 868.68858398 1509.72802734 869.94482422 C1500.3260896 899.90131565 1488.54550177 928.9917213 1474.875 957.25 C1474.10422119 958.85512451 1474.10422119 958.85512451 1473.31787109 960.49267578 C1466.05332674 975.56029269 1458.14943778 990.12200271 1449.54199219 1004.46289062 C1447.96107444 1007.10608878 1446.40278776 1009.76117089 1444.8515625 1012.421875 C1430.721539 1036.53019557 1414.41198568 1059.50029554 1396.875 1081.25 C1396.11703125 1082.19101563 1395.3590625 1083.13203125 1394.578125 1084.1015625 C1392.35968326 1086.8313472 1390.12313279 1089.54461986 1387.875 1092.25 C1387.45250977 1092.75885742 1387.03001953 1093.26771484 1386.59472656 1093.79199219 C1380.76444193 1100.79770308 1374.7856601 1107.62672894 1368.578125 1114.30078125 C1366.56201167 1116.4757558 1364.61728055 1118.70229333 1362.68237305 1120.94970703 C1359.02799304 1125.13124298 1355.18562949 1129.08423054 1351.25390625 1133.00390625 C1350.19851906 1134.06072853 1350.19851906 1134.06072853 1349.12181091 1135.13890076 C1347.64485352 1136.61653367 1346.16665258 1138.09292457 1344.68725586 1139.56811523 C1342.44334915 1141.80666481 1340.20483296 1144.05050473 1337.96679688 1146.29492188 C1336.52115382 1147.73990404 1335.07520055 1149.18457592 1333.62890625 1150.62890625 C1332.64102867 1151.61982018 1332.64102867 1151.61982018 1331.63319397 1152.63075256 C1327.20729818 1157.03476377 1322.61038116 1161.1823586 1317.875 1165.25 C1316.71906539 1166.26059126 1315.5639626 1167.27213581 1314.41015625 1168.28515625 C1299.81041285 1181.03590525 1284.92425375 1193.20072508 1269.20849609 1204.55615234 C1266.97804909 1206.17519831 1264.76262133 1207.81269278 1262.55078125 1209.45703125 C1198.61532385 1256.73617578 1124.40471756 1290.36397608 1047.875 1311.25 C1046.68036133 1311.57693848 1045.48572266 1311.90387695 1044.25488281 1312.24072266 C1017.69466955 1319.40651702 990.23779114 1325.18239427 962.875 1328.25 C962.19824219 1328.32976074 961.52148438 1328.40952148 960.82421875 1328.49169922 C939.0235141 1330.94804094 918.53009165 1325.63528873 901.1875 1311.9375 C885.2052808 1298.27088642 875.36408515 1280.21613545 873.09375 1259.171875 C871.87442843 1237.31118117 878.00327005 1216.25488918 892.609375 1199.63671875 C907.96514814 1183.46020601 926.4213785 1176.79210604 948.0461731 1173.70977783 C1047.46921876 1159.4173323 1138.69605702 1115.53274042 1240.25 1025 C1240.72453613 1024.5281427 1241.19907227 1024.0562854 1241.68798828 1023.57012939 C1247.30931778 1017.97289548 1252.73266809 1012.28949774 1257.875 1006.25 C1258.82414809 1005.16676439 1259.77461559 1004.08468308 1260.7265625 1003.00390625 C1268.52865899 994.05919093 1275.76547435 984.75050249 1282.875 975.25 C1283.45572266 974.47962402 1284.03644531 973.70924805 1284.63476562 972.91552734 C1292.86757997 961.98567901 1300.69619287 950.90187107 1307.875 939.25 C1308.37322266 938.44288574 1308.87144531 937.63577148 1309.38476562 936.80419922 C1318.65487035 921.68400038 1326.91032046 906.09060907 1334.875 890.25 C1335.2973291 889.42000488 1335.7196582 888.59000977 1336.15478516 887.73486328 C1362.14546547 836.42901672 1377.01421906 778.82140112 1383.1875 721.8125 C1383.30987534 720.68317551 1383.30987534 720.68317551 1383.4347229 719.53103638 C1385.27815335 702.20393235 1386.08796543 684.92226921 1386.0625 667.5 C1386.06109512 666.2364267 1386.06109512 666.2364267 1386.05966187 664.94732666 C1385.86665797 583.971259 1365.89928425 506.61372038 1329.875 434.25 C1329.21081055 432.90760254 1329.21081055 432.90760254 1328.53320312 431.53808594 C1312.01002176 398.35506531 1290.71278739 367.58777786 1266.875 339.25 C1266.42833984 338.71842285 1265.98167969 338.1868457 1265.52148438 337.63916016 C1254.74651439 324.8484397 1243.43027514 312.71798229 1231.625 300.875 C1231.1531427 300.40046387 1230.6812854 299.92592773 1230.19512939 299.43701172 C1224.59821331 293.81600142 1218.91835261 288.38750024 1212.875 283.25 C1211.75697117 282.27700756 1210.63975419 281.3030813 1209.5234375 280.328125 C1201.49994362 273.37742037 1193.31940942 266.68282744 1184.875 260.25 C1184.18341797 259.72180664 1183.49183594 259.19361328 1182.77929688 258.64941406 C1105.42022952 199.8578957 1013.29949217 165.58099406 916.875 156.25 C915.84375 156.1454248 914.8125 156.04084961 913.75 155.93310547 C900.91520506 154.81486196 887.99737286 155.0060219 875.125 155 C873.83088196 154.99932526 872.53676392 154.99865051 871.20343018 154.99795532 C850.91489742 155.01473982 830.99973158 155.58352509 810.875 158.25 C810.2238623 158.33485657 809.57272461 158.41971313 808.90185547 158.50714111 C722.18592537 169.86342641 639.10933629 202.80793481 550.01367188 270.14990234 C549.38396484 270.67148926 548.75425781 271.19307617 548.10546875 271.73046875 C547.55270264 272.19348389 546.99993652 272.65649902 546.43041992 273.13354492 C544.875 274.25 544.875 274.25 541.875 275.25 C542.22578613 275.74064941 542.57657227 276.23129883 542.93798828 276.73681641 C572.19118436 317.77847245 597.30090797 361.77042875 616.875 408.25 C619.05439784 408.4750104 619.05439784 408.4750104 620.7578125 406.52734375 C621.49773438 405.75519531 622.23765625 404.98304688 623 404.1875 C627.08050414 399.94000014 631.40899244 396.08166115 635.875 392.25 C636.50615723 391.70706299 637.13731445 391.16412598 637.78759766 390.60473633 C692.36062499 344.01472893 759.77929458 315.01412826 830.875 306.25 C831.81311523 306.13285645 832.75123047 306.01571289 833.71777344 305.89501953 C872.93209934 301.25030969 913.37912325 303.89069032 951.875 312.25 C953.37305176 312.57242676 953.37305176 312.57242676 954.90136719 312.90136719 C980.13958778 318.46092253 1004.49668582 327.29441955 1027.875 338.25 C1028.78266113 338.67361816 1029.69032227 339.09723633 1030.62548828 339.53369141 C1052.04325513 349.63297178 1072.03101793 361.92638193 1090.875 376.25 C1091.5232373 376.74129395 1092.17147461 377.23258789 1092.83935547 377.73876953 C1099.60452063 382.8927686 1106.14676084 388.2100991 1112.3984375 393.984375 C1114.40784944 395.82263829 1116.44638838 397.60107105 1118.51171875 399.375 C1123.6583142 403.86836448 1128.4813717 408.67235485 1133.3125 413.5 C1134.64764648 414.81677734 1134.64764648 414.81677734 1136.00976562 416.16015625 C1142.0721277 422.20923338 1147.53508843 428.56110786 1152.875 435.25 C1153.75009236 436.28929226 1154.63020303 437.32442553 1155.51953125 438.3515625 C1214.66085324 507.18993008 1241.53909324 601.31377541 1235.875 695.25 C1229.85672669 770.87666852 1200.47176282 842.09192287 1151.875 900.25 C1151.05128906 901.260625 1150.22757813 902.27125 1149.37890625 903.3125 C1143.02731675 911.00527558 1136.174949 918.13141635 1129.125 925.1875 C1128.23780273 926.07550293 1127.35060547 926.96350586 1126.43652344 927.87841797 C1121.40631347 932.86625439 1116.28779797 937.67995947 1110.875 942.25 C1110.27107422 942.76071045 1109.66714844 943.2714209 1109.04492188 943.79760742 C1066.55064824 979.38256777 1001.50310336 1022.62106324 943.44921875 1018.50097656 C926.75513955 1016.87336717 911.21606779 1009.54218861 898.875 998.25 C898.19308594 997.65960937 897.51117187 997.06921875 896.80859375 996.4609375 C881.73374183 982.59561382 874.06096104 962.42942317 872.94970703 942.33544922 C872.18860418 920.37894421 880.12732459 900.36231421 894.875 884.25 C905.81626145 872.99873615 917.87185793 866.87578169 932.49169922 862.05371094 C946.11290561 857.46028629 959.21999403 852.0634525 971.875 845.25 C973.04160156 844.63640625 974.20820313 844.0228125 975.41015625 843.390625 C987.93254669 836.55766336 999.28795464 827.97193059 1009.71875 818.25390625 C1011.72201924 816.39217233 1013.78073297 814.6326884 1015.875 812.875 C1045.30371236 787.03659055 1063.94203245 748.51342054 1072.6875 710.9375 C1072.8824707 710.10371826 1073.07744141 709.26993652 1073.27832031 708.41088867 C1076.24488378 694.88738793 1077.25921511 681.43241766 1077.1875 667.625 C1077.18567719 666.88876404 1077.18385437 666.15252808 1077.18197632 665.39398193 C1077.12992562 652.8289087 1076.36286956 640.59629758 1073.875 628.25 C1073.70871094 627.42467773 1073.54242187 626.59935547 1073.37109375 625.74902344 C1065.08705299 586.36914818 1045.45639044 552.18300528 1017.875 523.25 C1016.84439453 522.15751953 1016.84439453 522.15751953 1015.79296875 521.04296875 C981.74595582 485.88648086 930.57274556 464.69522342 881.875 463.25 C880.70066406 463.21003906 879.52632812 463.17007812 878.31640625 463.12890625 C831.84948231 462.3334 785.8613199 477.06772854 748.875 505.25 C747.99585937 505.91644531 747.11671875 506.58289063 746.2109375 507.26953125 C739.42566721 512.55773397 733.1330155 518.35754312 726.875 524.25 C726.16472656 524.90613281 725.45445312 525.56226563 724.72265625 526.23828125 C718.92117292 531.77875715 714.07613301 538.05579537 709.24658203 544.43847656 C708.37036362 545.59574616 707.48901544 546.74916133 706.60107422 547.89746094 C690.86046102 568.30589393 680.18047247 592.07242045 673.5 616.875 C673.27328613 617.70700928 673.04657227 618.53901855 672.81298828 619.39624023 C668.6330249 636.01702015 667.47797787 652.55521199 667.76431274 669.62982178 C667.84753335 674.91050929 667.86533313 680.19140137 667.8828125 685.47265625 C667.88843956 687.02327759 667.88843956 687.02327759 667.8941803 688.60522461 C667.91649781 701.55068068 667.17916012 714.36913346 665.875 727.25 C665.79958984 728.00591431 665.72417969 728.76182861 665.64648438 729.54064941 C658.13500856 804.27607801 639.45177899 876.99652822 607.875 945.25 C607.41303223 946.25224609 606.95106445 947.25449219 606.47509766 948.28710938 C584.12867199 996.48858702 556.19083243 1042.59409619 522.26757812 1083.55761719 C520.41786922 1085.80554533 518.61462447 1088.08883383 516.8125 1090.375 C508.46805617 1100.81867498 499.5967624 1110.78899984 490.46533203 1120.54638672 C488.79205954 1122.33884841 487.12787284 1124.13943936 485.46484375 1125.94140625 C466.33160908 1146.63094546 466.33160908 1146.63094546 456.0859375 1155.3203125 C453.6333038 1157.46095039 451.26457121 1159.67808329 448.89208984 1161.90673828 C443.29646329 1167.16187836 437.63002946 1172.22000922 431.6328125 1177.01953125 C429.14761825 1179.0295113 426.7168371 1181.09157094 424.29638672 1183.17871094 C416.44380063 1189.93264993 408.22770808 1196.13117793 399.875 1202.25 C399.15650879 1202.77883789 398.43801758 1203.30767578 397.69775391 1203.85253906 C366.48785763 1226.79267498 333.44872472 1246.79976668 298.875 1264.25 C297.85229004 1264.76675293 296.82958008 1265.28350586 295.77587891 1265.81591797 C222.99616739 1302.32375844 143.79379471 1323.42832863 60.66796875 1331.48828125 C60.01499817 1331.55153595 59.36202759 1331.61479065 58.68927002 1331.67996216 C45.89918031 1332.8571924 33.14442584 1333.41420908 20.30078125 1333.453125 C18.85490896 1333.4601494 17.40903698 1333.4672362 15.96316528 1333.47438049 C11.37127225 1333.49376382 6.77942983 1333.4988145 2.1875 1333.5 C1.01307783 1333.50066278 1.01307783 1333.50066278 -0.18507004 1333.50133896 C-23.23347878 1333.50815835 -46.13698815 1333.31059327 -69.04492188 1330.50323486 C-71.23600263 1330.23648621 -73.42832377 1329.98244679 -75.62109375 1329.72998047 C-137.16339917 1322.56860267 -198.00948785 1307.40817557 -255.125 1283.25 C-256.18332031 1282.80543457 -257.24164062 1282.36086914 -258.33203125 1281.90283203 C-287.19470661 1269.68331062 -315.38504892 1255.60639619 -342.125 1239.25 C-343.04297363 1238.69473633 -343.96094727 1238.13947266 -344.90673828 1237.56738281 C-356.58475246 1230.50282926 -367.98018174 1223.12730582 -379.125 1215.25 C-380.29157465 1214.43346227 -381.45823966 1213.61705362 -382.625 1212.80078125 C-395.67060726 1203.62540163 -408.28944435 1193.88006183 -420.59716797 1183.73901367 C-425.01135598 1180.10960915 -429.52820346 1176.64500981 -434.125 1173.25 C-435.07246094 1174.14138672 -435.07246094 1174.14138672 -436.0390625 1175.05078125 C-442.80486643 1181.31938633 -449.81205415 1187.12707588 -457.13916016 1192.7265625 C-459.16942382 1194.28407974 -461.18400188 1195.86057976 -463.19921875 1197.4375 C-474.27523998 1206.00668835 -485.79304112 1213.85661564 -497.4375 1221.625 C-498.20032288 1222.13501556 -498.96314575 1222.64503113 -499.74908447 1223.17050171 C-509.71177563 1229.82028411 -519.79322233 1236.18990549 -530.125 1242.25 C-531.01678955 1242.7769043 -531.9085791 1243.30380859 -532.82739258 1243.84667969 C-600.8348392 1283.82752568 -676.58904108 1311.60662327 -848.6640625 1333.453125 C-850.10717294 1333.46015006 -851.55028308 1333.46723685 -852.99339294 1333.47438049 C-857.57893323 1333.49376986 -862.16442285 1333.49881484 -866.75 1333.5 C-867.53209209 1333.50044186 -868.31418419 1333.50088371 -869.11997604 1333.50133896 C-892.50503471 1333.5082646 -915.75096157 1333.27834829 -939.00067139 1330.50323486 C-941.22249145 1330.23837834 -943.4453572 1329.98385535 -945.66845703 1329.72998047 C-1024.13608789 1320.64732213 -1099.48966462 1297.46798309 -1170.125 1262.25 C-1171.5478833 1261.54157959 -1171.5478833 1261.54157959 -1172.99951172 1260.81884766 C-1207.87889855 1243.32818729 -1241.20280955 1222.04708235 -1272.125 1198.25 C-1272.75841309 1197.7653125 -1273.39182617 1197.280625 -1274.04443359 1196.78125 C-1281.56340268 1191.01219996 -1288.8585006 1185.00853814 -1296.05859375 1178.84765625 C-1298.78270986 1176.52347258 -1301.57169993 1174.29076416 -1304.375 1172.0625 C-1311.5550778 1166.21437866 -1318.17724549 1159.76557281 -1324.87695312 1153.38037109 C-1327.10785764 1151.26624503 -1329.35520943 1149.1713179 -1331.609375 1147.08203125 C-1338.99128224 1140.22833469 -1346.12373356 1133.30617588 -1352.8359375 1125.79296875 C-1354.79136863 1123.62063826 -1356.78864202 1121.54499846 -1358.875 1119.5 C-1362.50278433 1115.92343145 -1365.81137988 1112.11693809 -1369.125 1108.25 C-1370.0087913 1107.23018849 -1370.89293245 1106.21068012 -1371.77734375 1105.19140625 C-1434.75731575 1032.41900989 -1480.90407475 947.71678465 -1534.125 712.25 C-1534.16630035 711.6213504 -1534.20760071 710.99270081 -1534.25015259 710.34500122 C-1535.17741249 696.0852814 -1535.32621499 681.84920452 -1535.3125 667.5625 C-1535.31189575 666.39503235 -1535.3112915 665.2275647 -1535.31066895 664.02471924 C-1535.28451217 645.35101411 -1534.89044091 626.84949567 -1533.125 608.25 C-1533.06183594 607.57803589 -1532.99867187 606.90607178 -1532.93359375 606.21374512 C-1525.8209027 531.18618604 -1507.34445588 456.97391741 -1464.0501709 366.0925293 C-1463.17116923 364.34194858 -1462.2987778 362.58805333 -1461.42675781 360.83398438 C-1444.1382323 326.13081645 -1422.71637103 293.00492636 -1399.125 262.25 C-1398.63741211 261.61223633 -1398.14982422 260.97447266 -1397.64746094 260.31738281 C-1391.50621623 252.31414277 -1385.1035251 244.55173673 -1378.53417969 236.89746094 C-1377.10097461 235.2219121 -1375.67850262 233.53773026 -1374.2578125 231.8515625 C-1362.57682695 218.03147094 -1350.07530655 205.0293132 -1337.26367188 192.25830078 C-1335.22667579 190.226738 -1333.19518049 188.18978164 -1331.1640625 186.15234375 C-1329.84146683 184.83040793 -1328.51856151 183.50878183 -1327.1953125 182.1875 C-1326.60243439 181.59259766 -1326.00955627 180.99769531 -1325.39871216 180.38476562 C-1321.13531345 176.14474499 -1316.68100119 172.17194796 -1312.125 168.25 C-1310.96916868 167.2392906 -1309.81407887 166.22773175 -1308.66015625 165.21484375 C-1293.33094151 151.82700781 -1277.66208018 139.1225978 -1261.125 127.25 C-1260.38185547 126.71600586 -1259.63871094 126.18201172 -1258.87304688 125.63183594 C-1234.57418911 108.22160733 -1209.39815363 92.52308485 -1183.125 78.25 C-1182.10921875 77.69812012 -1181.0934375 77.14624023 -1180.046875 76.57763672 C-1113.21410506 40.51578794 -1009.20456859 -5.023937 -920.76953125 7.92578125 C-910.37059365 11.70417337 -901.36541495 16.77775932 -893.125 24.25 C-892.34382812 24.94996094 -891.56265625 25.64992188 -890.7578125 26.37109375 C-885.0926991 31.72147863 -880.97449776 37.49649516 -877.125 44.25 C-876.66222656 45.02859375 -876.19945312 45.8071875 -875.72265625 46.609375 C-866.75521692 62.85434107 -865.31277451 83.78918001 -869.625 101.6875 C-876.47165571 124.87547684 -890.73310159 140.77608134 -911.73046875 152.390625 C-922.34476065 157.33387117 -934.33562356 158.91344317 -945.8125 160.5 C-993.00585416 167.4154506 -1038.84721203 181.1966113 -1082.125 201.25 C-1083.68130127 201.96542969 -1083.68130127 201.96542969 -1085.26904297 202.6953125 C-1124.09994053 220.62187406 -1161.86038709 243.63569533 -1194.23046875 271.75390625 C-1196.91814256 274.07161686 -1199.66057505 276.29080193 -1202.4375 278.5 C-1214.20883338 288.12340329 -1224.92925226 298.96392071 -1235.6875 309.6875 C-1236.6153833 310.61071045 -1237.5432666 311.5339209 -1238.49926758 312.48510742 C-1243.58252902 317.58035443 -1248.45810546 322.77237216 -1253.125 328.25 C-1254.07418161 329.33320624 -1255.02464904 330.41528745 -1255.9765625 331.49609375 C-1263.77730766 340.4390561 -1271.0461702 349.72801561 -1278.125 359.25 C-1278.6627002 359.97203613 -1279.20040039 360.69407227 -1279.75439453 361.43798828 C-1335.98650638 437.2761265 -1369.16236109 525.93383577 -1379.125 626.25 C-1379.22071289 627.33780762 -1379.31642578 628.42561523 -1379.41503906 629.54638672 C-1380.34582542 641.51816753 -1380.36849762 653.49793192 -1380.375 665.5 C-1380.37567474 666.62460632 -1380.37634949 667.74921265 -1380.37704468 668.90789795 C-1380.35847219 688.50274416 -1379.54027071 707.80459416 -1377.125 727.25 C-1377.0425 727.92323303 -1376.96 728.59646606 -1376.875 729.2901001 C-1370.55717575 780.35361087 -1356.70506335 830.50897097 -1335.125 877.25 C-1334.42503906 878.7673877 -1334.42503906 878.7673877 -1333.7109375 880.31542969 C-1317.03070098 916.22922769 -1296.87182153 950.27111601 -1272.125 981.25 C-1271.61582031 981.88921387 -1271.10664062 982.52842773 -1270.58203125 983.18701172 C-1264.68082732 990.57578161 -1258.7316372 997.88733292 -1252.3203125 1004.84375 C-1250.45212043 1006.89144807 -1248.62422263 1008.96399602 -1246.8046875 1011.0546875 C-1236.74793828 1022.57184927 -1226.14093006 1033.41673613 -1214.828125 1043.69970703 C-1213.25248794 1045.13395235 -1211.68695495 1046.57823164 -1210.125 1048.02734375 C-1203.98614533 1053.6866004 -1197.66590717 1059.06251506 -1191.125 1064.25 C-1190.15216064 1065.0236792 -1190.15216064 1065.0236792 -1189.15966797 1065.81298828 C-1168.51776051 1082.18187436 -1146.9214288 1097.03542869 -1124.125 1110.25 C-1123.14321777 1110.81920166 -1123.14321777 1110.81920166 -1122.14160156 1111.39990234 C-1042.90557622 1157.01087433 -954.33530008 1178.77809672 -735.11456299 1161.78967285 C-724.67585099 1158.95815181 -714.37680582 1155.69200633 -704.125 1152.25 C-703.04428223 1151.88793457 -701.96356445 1151.52586914 -700.85009766 1151.15283203 C-684.87183246 1145.73750224 -669.43921471 1139.31534587 -654.125 1132.25 C-653.08311523 1131.77159668 -652.04123047 1131.29319336 -650.96777344 1130.80029297 C-594.73473807 1104.83656824 -544.91794019 1067.96725241 -501.125 1024.375 C-500.08412231 1023.34113159 -500.08412231 1023.34113159 -499.0222168 1022.28637695 C-494.51987919 1017.7699067 -490.28125916 1013.0847575 -486.125 1008.25 C-485.07941309 1007.058764 -484.03256927 1005.86862987 -482.984375 1004.6796875 C-475.73948233 996.41625154 -468.77351007 988.0003685 -462.125 979.25 C-461.59825684 978.55986816 -461.07151367 977.86973633 -460.52880859 977.15869141 C-428.29005335 934.74125709 -402.91075607 887.44389149 -385.125 837.25 C-384.60510498 835.78312744 -384.60510498 835.78312744 -384.07470703 834.28662109 C-370.73954412 796.28547812 -362.55449571 756.97076954 -358.4375 716.9375 C-358.31802002 715.7832251 -358.19854004 714.6289502 -358.07543945 713.43969727 C-356.34023702 695.47576594 -356.07808612 677.62856565 -356.29248047 659.59082031 C-356.55972458 636.36815259 -356.68093051 613.95538538 -351.125 591.25 C-350.69436277 589.27030098 -350.26725064 587.28983171 -349.84375 585.30859375 C-336.33827658 524.74239666 -306.15521721 467.40586811 -263.796875 422.109375 C-261.99153541 420.17734492 -260.21110921 418.23918683 -258.453125 416.265625 C-251.75933947 408.77441117 -244.6393532 401.91399914 -237.125 395.25 C-236.56941406 394.755 -236.01382812 394.26 -235.44140625 393.75 C-164.02469651 330.41508882 -71.60881221 301.62999827 29.734375 304.5625 C75.14791634 307.61403177 119.83721987 319.70549332 160.875 339.25 C161.69709961 339.63913574 162.51919922 340.02827148 163.36621094 340.42919922 C189.17109453 352.72707522 212.9697014 368.16654108 234.84277344 386.56640625 C236.314852 387.78594658 237.80497269 388.98381533 239.30566406 390.16796875 C246.59168662 395.96071475 253.1936047 402.26022137 259.74609375 408.86035156 C261.49781575 410.62280238 263.25999428 412.37428568 265.0234375 414.125 C271.76512082 420.85834251 277.98350742 427.75132282 283.875 435.25 C284.89952812 436.50490817 285.92654718 437.75779052 286.95703125 439.0078125 C323.22277826 483.54230548 347.13709117 536.0921501 359.625 592 C359.8115918 592.8245166 359.99818359 593.6490332 360.19042969 594.49853516 C360.81114648 597.4065432 361.34487261 600.32408389 361.875 603.25 C362.13611572 604.53495361 362.39723145 605.81990723 362.66625977 607.14379883 C365.92608914 624.80306687 365.36627867 642.83639157 365.32104492 660.72192383 C365.31186845 664.52358037 365.31875981 668.32462195 365.34155273 672.1262207 C365.46921388 693.53386489 365.25747054 714.19966043 360.875 735.25 C360.60921968 736.61429772 360.34437478 737.97877829 360.08081055 739.34350586 C359.44739139 742.45609969 358.75029696 745.53880832 358 748.625 C357.61775269 750.23072876 357.61775269 750.23072876 357.2277832 751.86889648 C354.82295546 761.78760962 352.08387793 771.56183105 348.875 781.25 C348.56224121 782.19633301 348.24948242 783.14266602 347.92724609 784.11767578 C330.61108861 835.78131546 301.12410227 884.24470731 261.875 922.25 C259.2786818 924.82962162 256.70329502 927.4261329 254.1484375 930.046875 C248.24348392 936.08598587 242.2177036 941.73651148 235.54785156 946.94091797 C233.59268593 948.47092353 231.65250234 950.01918083 229.7109375 951.56640625 C220.39396549 958.94989509 210.94883178 965.93506068 200.875 972.25 C200.14120117 972.71083984 199.40740234 973.17167969 198.65136719 973.64648438 C156.18633307 1000.11865296 110.24844259 1017.42269116 60.875 1025.5625 C59.98256592 1025.70993652 59.09013184 1025.85737305 58.1706543 1026.00927734 C40.45417208 1028.70908249 22.65197709 1029.6627699 4.75 1029.625 C3.76419952 1029.62445618 2.77839905 1029.62391235 1.76272583 1029.62335205 C-35.84916928 1029.52901383 -72.26678432 1023.76304853 -108.125 1012.25 C-108.98351563 1011.97575195 -109.84203125 1011.70150391 -110.7265625 1011.41894531 C-161.41048978 995.00158961 -206.73380721 966.59290889 -245.55078125 930.375 C-246.18777954 929.78203125 -246.82477783 929.1890625 -247.4810791 928.578125 C-249.02980929 927.13622885 -250.5775142 925.69323159 -252.125 924.25 C-252.53113525 925.15838623 -252.93727051 926.06677246 -253.35571289 927.00268555 C-273.34093619 971.60911013 -295.54079503 1016.73856311 -325.81787109 1055.41235352 C-327.29940738 1057.1376615 -327.29940738 1057.1376615 -327.19140625 1059.1875 C-325.55078468 1062.36057029 -322.8698775 1064.16128997 -320.0625 1066.25 C-319.11866455 1066.96893433 -319.11866455 1066.96893433 -318.15576172 1067.70239258 C-316.81893557 1068.71828155 -315.47866905 1069.72965688 -314.13525391 1070.73681641 C-312.23670864 1072.16591327 -310.35661222 1073.6158997 -308.48046875 1075.07421875 C-287.37774779 1091.35162242 -264.7013034 1105.2901314 -241.33642578 1118.04003906 C-239.26964264 1119.17086013 -237.21082706 1120.31510508 -235.15234375 1121.4609375 C-145.23468621 1170.91899845 -35.46902835 1188.17867387 141.7890625 1159.74609375 C169.35176113 1151.69596057 195.99486436 1141.7352916 221.875 1129.25 C222.90657227 1128.75806152 223.93814453 1128.26612305 225.00097656 1127.75927734 C247.5705044 1116.95750546 269.36500749 1104.61191322 289.875 1090.25 C290.43864258 1089.85683594 291.00228516 1089.46367188 291.58300781 1089.05859375 C295.71491562 1086.16927767 299.80389895 1083.22424098 303.875 1080.25 C304.5158252 1079.78335937 305.15665039 1079.31671875 305.81689453 1078.8359375 C314.39395562 1072.56913243 322.63386293 1066.04387152 330.6328125 1059.0546875 C333.54453249 1056.51445689 336.53910238 1054.09422728 339.5625 1051.6875 C344.39837104 1047.76902215 348.75807139 1043.49397272 353.07421875 1039.0234375 C355.23698113 1036.88178995 357.40787027 1034.90516698 359.71484375 1032.9296875 C364.01433989 1029.20652726 367.8879392 1025.16949088 371.75 1021 C372.44617432 1020.25347168 373.14234863 1019.50694336 373.85961914 1018.73779297 C375.86920882 1016.57928437 377.87279812 1014.4153597 379.875 1012.25 C380.38949707 1011.69666992 380.90399414 1011.14333984 381.43408203 1010.57324219 C387.52791048 1004.01661857 393.30934235 997.25891008 398.875 990.25 C399.38015137 989.61739258 399.88530273 988.98478516 400.40576172 988.33300781 C465.43646355 906.68441615 504.49075877 807.73426127 513.078125 683.13671875 C513.08513931 681.9359671 513.09215363 680.73521545 513.09938049 679.49807739 C513.11677811 675.64451291 513.12323297 671.79110232 513.125 667.9375 C513.12567474 666.61809418 513.12634949 665.29868835 513.12704468 663.93930054 C513.11958581 643.85837929 512.60653792 624.16328124 509.875 604.25 C509.78778687 603.59994995 509.70057373 602.9498999 509.61071777 602.28015137 C498.153496 517.00693584 466.93779514 434.623204 415.44091797 365.35839844 C413.88947747 363.26949289 412.35208007 361.1708262 410.81640625 359.0703125 C404.22405523 350.10625144 397.22181539 341.60299745 389.875 333.25 C388.88886719 332.11304688 388.88886719 332.11304688 387.8828125 330.953125 C386.22424654 329.04233473 384.55066271 327.14580775 382.875 325.25 C381.98506348 324.23280884 381.98506348 324.23280884 381.07714844 323.19506836 C374.86249599 316.17705476 368.31067585 309.53251461 361.67260742 302.91723633 C359.80856756 301.05857892 357.94996488 299.19460386 356.09179688 297.33007812 C350.1903694 291.42500715 344.27956526 285.61497824 337.875 280.25 C336.81831729 279.33804209 335.76230035 278.42531204 334.70703125 277.51171875 C271.05494421 223.24687353 194.45581422 184.95432109 2 155 C0.70676819 154.99932526 -0.58646362 154.99865051 -1.91888428 154.99795532 C-21.84128223 155.01445018 -41.3675041 155.55164433 -61.125 158.25 C-62.10167633 158.3808197 -62.10167633 158.3808197 -63.0980835 158.51428223 C-122.95025337 166.55135192 -179.16541478 184.34924521 -233.125 211.25 C-233.9711084 211.67104004 -234.8172168 212.09208008 -235.68896484 212.52587891 C-267.19340583 228.33220886 -297.22070815 248.47859636 -324.125 271.25 C-325.15573806 272.10738666 -326.1870156 272.96412505 -327.21875 273.8203125 C-334.48284297 279.87445001 -341.48746957 286.16622663 -348.38769531 292.63037109 C-350.23620802 294.35367538 -352.09749575 296.0623872 -353.9609375 297.76953125 C-360.1946243 303.49877133 -366.25537145 309.23447399 -371.8203125 315.62890625 C-374.13511455 318.26150316 -376.5153831 320.81738234 -378.91723633 323.37011719 C-384.94342823 329.78312255 -390.67817056 336.33200119 -396.125 343.25 C-396.89215332 344.21631348 -396.89215332 344.21631348 -397.67480469 345.20214844 C-414.04955644 365.84775292 -428.90712094 387.447865 -442.125 410.25 C-442.69420166 411.23178223 -442.69420166 411.23178223 -443.27490234 412.23339844 C-488.87622078 491.45265351 -514.41664819 585.28790805 -510.53167725 685.97567749 C-509.84303664 702.14891307 -511.00240934 717.30798448 -514.125 733.25 C-514.44065918 734.91071533 -514.44065918 734.91071533 -514.76269531 736.60498047 C-520.10908545 764.18257459 -528.87814481 790.54050347 -540.125 816.25 C-540.51155762 817.13365234 -540.89811523 818.01730469 -541.29638672 818.92773438 C-561.58129597 864.67401096 -594.78313737 910.9042021 -634.41015625 942.09375 C-636.86457465 944.04315857 -639.23632676 946.06479613 -641.59912109 948.12353516 C-689.52440914 989.65485609 -751.74140203 1015.15973002 -813.875 1025.5 C-814.78338623 1025.65146484 -815.69177246 1025.80292969 -816.62768555 1025.95898438 C-834.57026519 1028.73071708 -852.55436009 1029.63212473 -870.6875 1029.5625 C-871.6839151 1029.56067719 -872.6803302 1029.55885437 -873.7069397 1029.55697632 C-951.59862048 1029.31848563 -1029.78087754 1003.77342612 -1091.125 955.25 C-1092.01703125 954.55777344 -1092.9090625 953.86554687 -1093.828125 953.15234375 C-1110.70454062 939.89619148 -1127.08836889 925.50441883 -1141.125 909.25 C-1141.81078125 908.51394531 -1142.4965625 907.77789063 -1143.203125 907.01953125 C-1150.45280921 899.23524802 -1156.77964768 890.77187424 -1163.125 882.25 C-1163.5698877 881.65703125 -1164.01477539 881.0640625 -1164.47314453 880.453125 C-1177.61488558 862.86917761 -1188.33282922 843.85993723 -1198.125 824.25 C-1198.50495117 823.49799316 -1198.88490234 822.74598633 -1199.27636719 821.97119141 C-1240.01150636 740.93266799 -1244.89948264 641.25474436 -1216.92651367 555.47045898 C-1216.00727947 552.72507524 -1215.07005373 549.98659732 -1214.125 547.25 C-1213.80724609 546.31929687 -1213.48949219 545.38859375 -1213.16210938 544.4296875 C-1202.28090088 512.92354534 -1186.6686145 483.24205499 -1167.125 456.25 C-1166.72829102 455.70166504 -1166.33158203 455.15333008 -1165.92285156 454.58837891 C-1158.62371551 444.56353865 -1150.82729566 434.98373721 -1142.4609375 425.83203125 C-1140.56508397 423.73644734 -1138.71307519 421.61566073 -1136.8671875 419.4765625 C-1133.03332721 415.08789592 -1128.99705509 410.92987307 -1124.875 406.8125 C-1124.12702148 406.06532715 -1123.37904297 405.3181543 -1122.60839844 404.54833984 C-1117.85594478 399.84814473 -1113.03986644 395.4596778 -1107.7734375 391.33984375 C-1105.31946254 389.40344758 -1102.95870882 387.38494968 -1100.60400391 385.32983398 C-1059.58491328 349.72376491 -994.8184978 311.73389459 -939.125 315.25 C-922.98972595 317.06819898 -908.05286167 324.33589872 -896.125 335.25 C-895.44308594 335.84039062 -894.76117187 336.43078125 -894.05859375 337.0390625 C-881.19651307 348.86915628 -872.48403442 367.09594051 -870.82128906 384.41308594 C-870.68919625 387.63595202 -870.65672261 390.83712604 -870.6875 394.0625 C-870.69652344 395.20251465 -870.70554687 396.3425293 -870.71484375 397.51708984 C-871.10639208 416.62954252 -878.1728221 434.11557462 -891.125 448.25 C-891.68832031 448.88164062 -892.25164063 449.51328125 -892.83203125 450.1640625 C-903.89820391 461.92996973 -918.34398649 468.16505395 -933.4375 472.9375 C-961.26744636 481.8100829 -986.41707877 496.38962751 -1007.859375 516.171875 C-1009.9267788 518.06818331 -1012.04250093 519.88029606 -1014.1875 521.6875 C-1027.5284696 533.40412001 -1038.43672581 548.85404871 -1047.125 564.25 C-1047.70846191 565.27552979 -1047.70846191 565.27552979 -1048.30371094 566.32177734 C-1059.14573509 585.57250641 -1066.40446352 605.68024936 -1071.125 627.25 C-1071.30434082 628.06243164 -1071.48368164 628.87486328 -1071.66845703 629.71191406 C-1082.17258286 680.09416605 -1069.6024955 735.02356157 -1041.87890625 777.765625 C-1039.69770735 780.9849346 -1037.43859196 784.12469018 -1035.125 787.25 C-1034.36445312 788.30832031 -1033.60390625 789.36664062 -1032.8203125 790.45703125 C-1001.49282505 832.95013286 -952.52287884 860.09867296 -900.875 868.5625 C-898.96056332 868.8096046 -897.04390686 869.04041726 -895.125 869.25 C-894.26777344 869.35957031 -893.41054688 869.46914063 -892.52734375 869.58203125 C-838.38736331 875.42447518 -783.22712543 858.387493 -740.9375 824.4375 C-739.32119635 823.05573884 -737.71636687 821.66040876 -736.125 820.25 C-735.29226563 819.52554688 -734.45953125 818.80109375 -733.6015625 818.0546875 C-731.07352842 815.82223895 -728.59055975 813.5511891 -726.125 811.25 C-725.31289063 810.49203125 -724.50078125 809.7340625 -723.6640625 808.953125 C-716.73055399 802.26021142 -710.89881972 794.93304063 -705.125 787.25 C-704.7021875 786.69860352 -704.279375 786.14720703 -703.84375 785.57910156 C-679.4240946 753.66184885 -664.48853012 712.00509825 -665.1328125 671.671875 C-665.15314118 669.62265004 -665.17238403 667.57341409 -665.19067383 665.52416992 C-665.20111725 664.46040131 -665.21156067 663.39663269 -665.22232056 662.30062866 C-665.41385869 639.4607091 -664.66051143 616.94982452 -662.125 594.25 C-662.04014343 593.48894958 -661.95528687 592.72789917 -661.86785889 591.94378662 C-652.80830647 511.81291846 -629.08608605 435.34952588 -593.125 363.25 C-592.61469238 362.22535645 -592.10438477 361.20071289 -591.57861328 360.14501953 C-564.71548464 306.56933039 -528.64677666 256.69207398 -487.72412109 212.96240234 C-486.02510201 211.14302526 -484.33433501 209.31621865 -482.64453125 207.48828125 C-473.77146497 197.90609697 -464.89853193 188.34935653 -454.953125 179.859375 C-453.09562012 178.22413566 -451.35893991 176.51518207 -449.625 174.75 C-445.96203374 171.03786641 -442.08265399 167.64319118 -438.125 164.25 C-437.0816862 163.34284461 -436.03874621 162.43525919 -434.99609375 161.52734375 C-427.54046613 155.05680261 -419.94601173 148.81797839 -412.12304688 142.79736328 C-409.98149815 141.13886672 -407.85826958 139.45837786 -405.734375 137.77734375 C-389.84334457 125.31591573 -373.05361488 114.236546 -356.125 103.25 C-354.6080957 102.26507568 -354.6080957 102.26507568 -353.06054688 101.26025391 C-283.03306306 56.13227491 -202.89376296 25.93188062 -65.6875 3 C-64.88705261 2.91682526 -64.08660522 2.83365051 -63.26190186 2.74795532 C-42.16023747 0.58215361 -21.2128664 0.00958719 0 0 Z M-123.125 507.25 C-123.70475586 507.72969238 -124.28451172 508.20938477 -124.88183594 508.70361328 C-136.09969241 518.01988437 -146.07469165 527.77304911 -155.125 539.25 C-155.94097656 540.260625 -156.75695313 541.27125 -157.59765625 542.3125 C-163.89568215 550.19997539 -169.15295955 558.47661483 -174.125 567.25 C-174.46772949 567.83974609 -174.81045898 568.42949219 -175.16357422 569.03710938 C-201.22201171 613.99383926 -206.50728399 669.58837929 -193.66064453 719.45288086 C-185.89815266 747.91301998 -172.45394031 774.85865557 -153.125 797.25 C-152.47789063 798.00667969 -151.83078125 798.76335937 -151.1640625 799.54296875 C-148.8660843 802.16129707 -146.51170996 804.71214346 -144.125 807.25 C-143.6005127 807.80848633 -143.07602539 808.36697266 -142.53564453 808.94238281 C-107.14761533 846.31037275 -56.8366765 869.45452418 -5.27685547 871.35498047 C48.79256519 872.77206931 100.67048318 855.14170443 140.6484375 818.2890625 C142.68217601 816.42658618 144.76451298 814.64915443 146.875 812.875 C184.57303594 779.77612445 205.3355504 727.41490422 208.59765625 678.3046875 C211.7390536 623.52594401 192.27245479 570.89660736 156.0703125 530.07421875 C120.34015731 490.2983648 69.66211269 465.61008364 16.1484375 462.375 C-33.90389281 460.46369383 -84.31186082 474.84162961 -123.125 507.25 Z " fill="#FFFFFF" transform="translate(1535.125,-0.25)"/>
<path d="M0 0 C55.38785663 -1.47112501 108.86720515 12.83294141 157.82324219 38.06640625 C158.65307617 38.49308594 159.48291016 38.91976563 160.33789062 39.359375 C176.53111684 47.79799711 191.67565985 58.56129408 205.82324219 70.06640625 C206.34644043 70.48664063 206.86963867 70.906875 207.40869141 71.33984375 C216.89859126 79.02959179 225.5498281 87.58477341 234.19824219 96.19140625 C234.75627533 96.74417236 235.31430847 97.29693848 235.88925171 97.86645508 C243.01356216 104.93874796 249.62358363 112.15728302 255.82324219 120.06640625 C256.7046312 121.16155605 257.58611841 122.25662684 258.46777344 123.3515625 C309.27660965 188.44180132 333.3608104 272.91477551 323.51074219 355.07421875 C323.28743182 356.73907726 323.05802802 358.40312727 322.82324219 360.06640625 C322.62988281 361.46971191 322.62988281 361.46971191 322.43261719 362.90136719 C313.46762282 426.00911688 285.96073352 485.91331333 242.79199219 532.9140625 C240.96620897 534.91010724 239.20374154 536.94616291 237.44824219 539.00390625 C230.45766222 546.99314049 222.92192301 554.22494859 214.61621094 560.83203125 C211.7548188 563.12114496 208.98084062 565.4949065 206.19824219 567.87890625 C181.55143826 588.37566993 152.63261859 604.45344187 122.82324219 616.06640625 C121.98245117 616.39737305 121.14166016 616.72833984 120.27539062 617.06933594 C98.4733379 625.57368274 75.97036135 631.62125363 52.82324219 635.06640625 C51.38730713 635.29070312 51.38730713 635.29070312 49.92236328 635.51953125 C19.94706933 640.05664963 -12.2927078 640.24804633 -42.17675781 635.06640625 C-43.32321777 634.86772949 -44.46967773 634.66905273 -45.65087891 634.46435547 C-63.23958248 631.30704482 -80.26760477 626.82866519 -97.17675781 621.06640625 C-98.0670166 620.76541016 -98.95727539 620.46441406 -99.87451172 620.15429688 C-135.90545008 607.75861426 -168.74237048 588.07889536 -198.17675781 564.06640625 C-198.71800293 563.6295752 -199.25924805 563.19274414 -199.81689453 562.74267578 C-214.09762412 551.15369123 -227.99718627 538.09020646 -239.26660156 523.52734375 C-241.3674197 520.82076824 -243.61179732 518.27287783 -245.86425781 515.69140625 C-296.96183229 454.35844806 -317.77511574 369.94268523 -311.40307617 291.44262695 C-306.46598351 239.60486943 -290.25037978 189.98843817 -262.17675781 146.06640625 C-261.77360352 145.43025391 -261.37044922 144.79410156 -260.95507812 144.13867188 C-256.4319386 137.03932452 -251.84963109 130.32413697 -246.09082031 124.15234375 C-244.08852173 121.97024693 -242.25727017 119.7065948 -240.42675781 117.37890625 C-228.89712717 102.86592759 -216.55841791 88.84012446 -202.17675781 77.06640625 C-201.67660156 76.65245605 -201.17644531 76.23850586 -200.66113281 75.81201172 C-185.09428185 62.96311151 -168.87314328 51.78153971 -151.17675781 42.06640625 C-149.86626465 41.339375 -149.86626465 41.339375 -148.52929688 40.59765625 C-102.84573643 15.40198341 -52.11074325 1.58974004 0 0 Z M-141.17675781 190.06640625 C-165.14767792 217.88178057 -179.91612875 251.30013846 -187.17675781 287.06640625 C-187.3971875 288.12891602 -187.3971875 288.12891602 -187.62207031 289.21289062 C-196.68133037 335.32837932 -183.44221265 387.01784173 -158.16113281 425.8046875 C-144.86631208 445.42509435 -128.41942626 463.19447487 -109.17675781 477.06640625 C-108.51756348 477.54287598 -107.85836914 478.0193457 -107.17919922 478.51025391 C-85.88824871 493.70377255 -63.14517583 504.33901728 -37.86425781 510.87890625 C-37.11313721 511.07411865 -36.3620166 511.26933105 -35.58813477 511.47045898 C-22.40934861 514.67427466 -9.23517158 515.47858953 4.26074219 515.44140625 C5.0449353 515.44053009 5.82912842 515.43965393 6.63708496 515.43875122 C60.15609269 515.24271835 108.87673402 492.07938995 146.82324219 455.06640625 C166.09678671 435.63044421 180.16796941 412.63066963 189.82324219 387.06640625 C190.29246094 385.84179688 190.76167969 384.6171875 191.24511719 383.35546875 C195.22955486 372.21380045 197.60910875 360.67026416 199.82324219 349.06640625 C199.95891602 348.36467285 200.09458984 347.66293945 200.234375 346.93994141 C208.93744478 299.6124028 194.50702984 248.4469507 167.59667969 209.28125 C164.8213891 205.42270083 161.85732996 201.72405745 158.82324219 198.06640625 C158.3459668 197.48761719 157.86869141 196.90882813 157.37695312 196.3125 C147.80684206 184.76602072 137.71174814 174.27387027 125.82324219 165.06640625 C125.26507812 164.63183105 124.70691406 164.19725586 124.13183594 163.74951172 C114.84613319 156.56839819 105.24838881 150.45809231 94.82324219 145.06640625 C93.91952881 144.59509277 93.91952881 144.59509277 92.99755859 144.11425781 C78.76586524 136.79733234 63.46043997 132.02560021 47.94824219 128.25390625 C47.15401855 128.05909668 46.35979492 127.86428711 45.54150391 127.66357422 C32.2363671 124.58857315 19.04637724 123.65547316 5.44824219 123.69140625 C4.66665741 123.69195007 3.88507263 123.6924939 3.07980347 123.6930542 C-53.18209229 123.87180639 -103.61428115 148.78477832 -141.17675781 190.06640625 Z " fill="#FFFFFF" transform="translate(1295.1767578125,1750.93359375)"/>
<path d="M0 0 C1.53775349 -0.00600371 3.07550401 -0.01281339 4.61325073 -0.02035522 C8.74121942 -0.03782444 12.86910493 -0.04270211 16.99710703 -0.0439868 C19.58515544 -0.04541864 22.17318338 -0.04970729 24.76122665 -0.05498123 C33.81478953 -0.07341061 42.86829398 -0.08165984 51.921875 -0.08007812 C60.32387502 -0.07887513 68.72561886 -0.10002668 77.12755406 -0.13156545 C84.37811797 -0.15780018 91.62859845 -0.16844258 98.8792094 -0.16716731 C103.19374652 -0.16666026 107.50805485 -0.17220121 111.8225441 -0.19352341 C115.87920019 -0.21303084 119.9354118 -0.21294598 123.9920845 -0.19849014 C125.4701961 -0.19641712 126.94833652 -0.20101178 128.42639923 -0.21321106 C146.97549364 -0.35625643 161.9837111 5.44090435 175.26904297 18.43115234 C189.18368986 33.0027139 192.6362761 48.90871562 192.31201172 68.40771484 C192.05107211 75.28564811 190.87428007 80.98225824 187.99951172 87.29052734 C187.59861328 88.21349609 187.19771484 89.13646484 186.78466797 90.08740234 C179.36869425 105.30627015 165.7461959 116.49939143 149.99951172 122.29052734 C142.85190876 124.52986729 136.10068537 124.58354185 128.64550781 124.57763672 C127.30745023 124.58367083 125.96939643 124.59059756 124.63134766 124.5983429 C121.76240308 124.61316683 118.89352732 124.62196485 116.02454758 124.62605286 C111.47492394 124.63280885 106.92544599 124.65461512 102.37588501 124.67858887 C92.70879491 124.72743475 83.04167379 124.75979578 73.37451172 124.79052734 C62.95560469 124.82370054 52.53675513 124.85989181 42.11793578 124.91465807 C37.60919316 124.93780377 33.10055164 124.95169651 28.59175563 124.95815277 C25.76782019 124.96415674 22.94396505 124.97830871 20.12007141 124.9944973 C18.21679462 125.0030284 16.31348207 125.00196499 14.41018677 125.0004425 C-7.10523708 125.15273112 -25.61495884 130.12884549 -41.27001953 145.43115234 C-53.45803541 158.19456811 -58.92287705 173.7995829 -59.37548828 191.35302734 C-58.84684294 209.4692967 -51.93571325 226.43902552 -39.00048828 239.29052734 C-21.29719229 254.39803213 -2.83604288 256.44143526 19.65869141 256.43237305 C21.0894837 256.43541349 22.52027503 256.43893735 23.95106506 256.44290161 C27.01034396 256.45072739 30.06961155 256.45591158 33.12889862 256.45919228 C37.99240053 256.46517234 42.85583191 256.48178005 47.71929932 256.50053406 C49.39475628 256.50687006 51.07021328 256.5131957 52.74567032 256.51951122 C53.58433152 256.52267703 54.42299272 256.52584285 55.28706789 256.52910459 C66.58752492 256.57090418 77.88794735 256.60409569 89.18847656 256.61645508 C96.84024704 256.62490904 104.49183995 256.64766459 112.14352155 256.68581074 C116.1739459 256.70532471 120.20410649 256.71806002 124.23458099 256.71297646 C156.83693796 256.67968471 186.46723984 260.8691777 215.99951172 275.29052734 C216.71204102 275.6345459 217.42457031 275.97856445 218.15869141 276.33300781 C262.99691148 298.22148803 297.69324764 338.06927369 314.34985352 384.97460938 C321.27020225 405.47248993 324.42380735 426.40269618 324.31201172 447.97802734 C324.3092775 449.08429977 324.3092775 449.08429977 324.30648804 450.21292114 C324.25591766 462.43003238 323.55886087 474.31750913 320.99951172 486.29052734 C320.75007813 487.46446045 320.75007813 487.46446045 320.49560547 488.66210938 C309.58293116 537.96112601 279.45577332 581.90613409 236.99951172 609.29052734 C231.13017271 612.86410025 225.09657569 616.12479716 218.99951172 619.29052734 C218.0467334 619.78746094 218.0467334 619.78746094 217.07470703 620.29443359 C200.08657743 629.02127502 181.80498533 634.26486453 162.99951172 637.29052734 C162.05228556 637.46011554 161.10505939 637.62970373 160.12912941 637.80443096 C154.65447827 638.57557561 149.14584624 638.43857425 143.62826538 638.43769836 C142.38188974 638.44137505 141.1355141 638.44505174 139.8513695 638.44883984 C136.40338803 638.45793193 132.95545403 638.46256869 129.50746512 638.46522915 C125.78405256 638.46914667 122.06065359 638.47872379 118.33724976 638.48744202 C109.35226712 638.50716327 100.36728343 638.51726606 91.38228458 638.52616981 C87.14614822 638.53055889 82.9100131 638.535924 78.67387772 638.54115868 C64.58452552 638.55816485 50.49517409 638.57265856 36.40581322 638.57990742 C32.75328953 638.58181715 29.10076585 638.58373751 25.44824219 638.58569336 C24.54048261 638.5861771 23.63272304 638.58666084 22.6974556 638.58715924 C7.99529631 638.59545803 -6.70678159 638.62079515 -21.40890534 638.65327404 C-36.51858716 638.68638005 -51.62822765 638.70435928 -66.73794591 638.70755166 C-75.21534935 638.70971322 -83.69263399 638.71841024 -92.17000198 638.74401283 C-99.38988048 638.7657681 -106.60961131 638.77374651 -113.82951887 638.76404605 C-117.50917771 638.75951558 -121.18853214 638.76131389 -124.8681488 638.7808075 C-128.86809093 638.80181401 -132.86736437 638.79140864 -136.86734009 638.77827454 C-138.58932269 638.79472841 -138.58932269 638.79472841 -140.34609282 638.81151468 C-157.21226609 638.6784308 -171.34978765 631.80537093 -183.27001953 620.14990234 C-195.93385525 606.88820313 -200.82147362 591.35310623 -201.00048828 573.29052734 C-200.02115631 556.29730398 -192.79589672 541.09049898 -180.45361328 529.35693359 C-167.89094487 518.77468584 -154.65524442 513.97525793 -138.40234375 514.0255127 C-137.25115209 514.02113142 -136.09996042 514.01675015 -134.91388416 514.01223612 C-131.06510825 513.99993695 -127.21646904 514.00172287 -123.36767578 514.00341797 C-120.60430825 513.99850569 -117.84095146 513.99056973 -115.07759094 513.98271179 C-109.12947412 513.96728035 -103.18138094 513.9588521 -97.23324585 513.95500183 C-88.61590628 513.94923967 -79.99862999 513.93062804 -71.38131845 513.90856129 C-57.37596746 513.87286181 -43.37061288 513.84454354 -29.36523438 513.82226562 C-28.10879987 513.82026314 -28.10879987 513.82026314 -26.82698286 513.8182202 C-20.88481829 513.80879736 -14.94265333 513.79963612 -9.00048828 513.79052734 C-2.22656219 513.78013709 4.54736366 513.7696166 11.32128906 513.75878906 C12.15546057 513.75745832 12.98963208 513.75612758 13.84908152 513.75475651 C27.79378321 513.73227011 41.73845807 513.70204623 55.68313217 513.66639662 C64.26998883 513.64481725 72.8568037 513.63013503 81.44368595 513.62455785 C87.3376933 513.620287 93.23166091 513.60898759 99.12564617 513.59233391 C102.51801863 513.58299745 105.91025404 513.57789327 109.30264854 513.5793972 C136.15707701 513.58790404 159.5038843 512.81157882 179.99951172 493.29052734 C186.14538353 486.31696072 190.75461543 478.99448444 193.99951172 470.29052734 C194.31791016 469.51193359 194.63630859 468.73333984 194.96435547 467.93115234 C200.23894645 452.66643744 197.94556945 433.91376301 191.74951172 419.35302734 C183.08424144 402.02248678 168.82812231 390.93549779 150.81982422 384.51318359 C140.46616394 381.57033824 128.99227566 382.14439041 118.34033203 382.14868164 C116.90953974 382.1456412 115.47874841 382.14211734 114.04795837 382.13815308 C110.98867947 382.13032729 107.92941189 382.1251431 104.87012482 382.12186241 C100.0066229 382.11588234 95.14319152 382.09927463 90.27972412 382.08052063 C88.60426716 382.07418463 86.92881016 382.06785899 85.25335312 382.06154346 C84.41469192 382.05837765 83.57603072 382.05521184 82.71195555 382.0519501 C71.41149852 382.01015051 60.11107609 381.97695899 48.81054688 381.96459961 C41.1587764 381.95614564 33.50718349 381.9333901 25.85550189 381.89524394 C21.82507753 381.87572997 17.79491695 381.86299467 13.76444244 381.86807823 C-42.35955013 381.925412 -92.03988332 365.08469774 -132.3671875 324.93164062 C-132.90617676 324.39007324 -133.44516602 323.84850586 -134.00048828 323.29052734 C-135.25539063 322.035625 -135.25539063 322.035625 -136.53564453 320.75537109 C-169.9751828 285.37379067 -187.24430551 235.11551676 -186.18408203 186.86474609 C-184.83769835 148.28792663 -173.45233541 111.84988452 -151.00048828 80.29052734 C-150.59507813 79.71689453 -150.18966797 79.14326172 -149.77197266 78.55224609 C-133.7337594 56.13549631 -112.90515307 37.90405289 -89.00048828 24.29052734 C-88.32066895 23.90010254 -87.64084961 23.50967773 -86.94042969 23.10742188 C-59.87598305 7.73548845 -31.09037846 -0.024685 0 0 Z " fill="#FFFFFF" transform="translate(1834.00048828125,1749.70947265625)"/>
<path d="M0 0 C1.53775349 -0.00600371 3.07550401 -0.01281339 4.61325073 -0.02035522 C8.74121942 -0.03782444 12.86910493 -0.04270211 16.99710703 -0.0439868 C19.58515544 -0.04541864 22.17318338 -0.04970729 24.76122665 -0.05498123 C33.81478953 -0.07341061 42.86829398 -0.08165984 51.921875 -0.08007812 C60.32387502 -0.07887513 68.72561886 -0.10002668 77.12755406 -0.13156545 C84.37811797 -0.15780018 91.62859845 -0.16844258 98.8792094 -0.16716731 C103.19374652 -0.16666026 107.50805485 -0.17220121 111.8225441 -0.19352341 C115.87920019 -0.21303084 119.9354118 -0.21294598 123.9920845 -0.19849014 C125.4701961 -0.19641712 126.94833652 -0.20101178 128.42639923 -0.21321106 C146.97549364 -0.35625643 161.9837111 5.44090435 175.26904297 18.43115234 C189.18368986 33.0027139 192.6362761 48.90871562 192.31201172 68.40771484 C192.05107211 75.28564811 190.87428007 80.98225824 187.99951172 87.29052734 C187.59861328 88.21349609 187.19771484 89.13646484 186.78466797 90.08740234 C179.36869425 105.30627015 165.7461959 116.49939143 149.99951172 122.29052734 C142.85190876 124.52986729 136.10068537 124.58354185 128.64550781 124.57763672 C127.30745023 124.58367083 125.96939643 124.59059756 124.63134766 124.5983429 C121.76240308 124.61316683 118.89352732 124.62196485 116.02454758 124.62605286 C111.47492394 124.63280885 106.92544599 124.65461512 102.37588501 124.67858887 C92.70879491 124.72743475 83.04167379 124.75979578 73.37451172 124.79052734 C62.95560469 124.82370054 52.53675513 124.85989181 42.11793578 124.91465807 C37.60919316 124.93780377 33.10055164 124.95169651 28.59175563 124.95815277 C25.76782019 124.96415674 22.94396505 124.97830871 20.12007141 124.9944973 C18.21679462 125.0030284 16.31348207 125.00196499 14.41018677 125.0004425 C-7.10523708 125.15273112 -25.61495884 130.12884549 -41.27001953 145.43115234 C-53.45803541 158.19456811 -58.92287705 173.7995829 -59.37548828 191.35302734 C-58.84684294 209.4692967 -51.93571325 226.43902552 -39.00048828 239.29052734 C-21.29719229 254.39803213 -2.83604288 256.44143526 19.65869141 256.43237305 C21.0894837 256.43541349 22.52027503 256.43893735 23.95106506 256.44290161 C27.01034396 256.45072739 30.06961155 256.45591158 33.12889862 256.45919228 C37.99240053 256.46517234 42.85583191 256.48178005 47.71929932 256.50053406 C49.39475628 256.50687006 51.07021328 256.5131957 52.74567032 256.51951122 C53.58433152 256.52267703 54.42299272 256.52584285 55.28706789 256.52910459 C66.58752492 256.57090418 77.88794735 256.60409569 89.18847656 256.61645508 C96.84024704 256.62490904 104.49183995 256.64766459 112.14352155 256.68581074 C116.1739459 256.70532471 120.20410649 256.71806002 124.23458099 256.71297646 C156.83693796 256.67968471 186.46723984 260.8691777 215.99951172 275.29052734 C216.71204102 275.6345459 217.42457031 275.97856445 218.15869141 276.33300781 C262.99691148 298.22148803 297.69324764 338.06927369 314.34985352 384.97460938 C321.27020225 405.47248993 324.42380735 426.40269618 324.31201172 447.97802734 C324.3092775 449.08429977 324.3092775 449.08429977 324.30648804 450.21292114 C324.25591766 462.43003238 323.55886087 474.31750913 320.99951172 486.29052734 C320.75007812 487.46446045 320.75007812 487.46446045 320.49560547 488.66210938 C309.58293116 537.96112601 279.45577332 581.90613409 236.99951172 609.29052734 C231.13017271 612.86410025 225.09657569 616.12479716 218.99951172 619.29052734 C218.0467334 619.78746094 218.0467334 619.78746094 217.07470703 620.29443359 C200.08657743 629.02127502 181.80498533 634.26486453 162.99951172 637.29052734 C162.05228556 637.46011554 161.10505939 637.62970373 160.12912941 637.80443096 C154.65447827 638.57557561 149.14584624 638.43857425 143.62826538 638.43769836 C142.38188974 638.44137505 141.1355141 638.44505174 139.8513695 638.44883984 C136.40338803 638.45793193 132.95545403 638.46256869 129.50746512 638.46522915 C125.78405256 638.46914667 122.06065359 638.47872379 118.33724976 638.48744202 C109.35226712 638.50716327 100.36728343 638.51726606 91.38228458 638.52616981 C87.14614822 638.53055889 82.9100131 638.535924 78.67387772 638.54115868 C64.58452552 638.55816485 50.49517409 638.57265856 36.40581322 638.57990742 C32.75328953 638.58181715 29.10076585 638.58373751 25.44824219 638.58569336 C24.54048261 638.5861771 23.63272304 638.58666084 22.6974556 638.58715924 C7.99529631 638.59545803 -6.70678159 638.62079515 -21.40890534 638.65327404 C-36.51858716 638.68638005 -51.62822765 638.70435928 -66.73794591 638.70755166 C-75.21534935 638.70971322 -83.69263399 638.71841024 -92.17000198 638.74401283 C-99.38988048 638.7657681 -106.60961131 638.77374651 -113.82951887 638.76404605 C-117.50917771 638.75951558 -121.18853214 638.76131389 -124.8681488 638.7808075 C-128.86809093 638.80181401 -132.86736437 638.79140864 -136.86734009 638.77827454 C-138.58932269 638.79472841 -138.58932269 638.79472841 -140.34609282 638.81151468 C-157.21226609 638.6784308 -171.34978765 631.80537093 -183.27001953 620.14990234 C-195.93385525 606.88820313 -200.82147362 591.35310623 -201.00048828 573.29052734 C-200.02115631 556.29730398 -192.79589672 541.09049898 -180.45361328 529.35693359 C-167.89094487 518.77468584 -154.65524442 513.97525793 -138.40234375 514.0255127 C-137.25115209 514.02113142 -136.09996042 514.01675015 -134.91388416 514.01223612 C-131.06510825 513.99993695 -127.21646904 514.00172287 -123.36767578 514.00341797 C-120.60430825 513.99850569 -117.84095146 513.99056973 -115.07759094 513.98271179 C-109.12947412 513.96728035 -103.18138094 513.9588521 -97.23324585 513.95500183 C-88.61590628 513.94923967 -79.99862999 513.93062804 -71.38131845 513.90856129 C-57.37596746 513.87286181 -43.37061288 513.84454354 -29.36523438 513.82226562 C-28.10879987 513.82026314 -28.10879987 513.82026314 -26.82698286 513.8182202 C-20.88481829 513.80879736 -14.94265333 513.79963612 -9.00048828 513.79052734 C-2.22656219 513.78013709 4.54736366 513.7696166 11.32128906 513.75878906 C12.15546057 513.75745832 12.98963208 513.75612758 13.84908152 513.75475651 C27.79378321 513.73227011 41.73845807 513.70204623 55.68313217 513.66639662 C64.26998883 513.64481725 72.8568037 513.63013503 81.44368595 513.62455785 C87.3376933 513.620287 93.23166091 513.60898759 99.12564617 513.59233391 C102.51801863 513.58299745 105.91025404 513.57789327 109.30264854 513.5793972 C136.15707701 513.58790404 159.5038843 512.81157882 179.99951172 493.29052734 C186.14538353 486.31696072 190.75461543 478.99448444 193.99951172 470.29052734 C194.31791016 469.51193359 194.63630859 468.73333984 194.96435547 467.93115234 C200.23894645 452.66643744 197.94556945 433.91376301 191.74951172 419.35302734 C183.08424144 402.02248678 168.82812231 390.93549779 150.81982422 384.51318359 C140.46616394 381.57033824 128.99227566 382.14439041 118.34033203 382.14868164 C116.90953974 382.1456412 115.47874841 382.14211734 114.04795837 382.13815308 C110.98867947 382.13032729 107.92941189 382.1251431 104.87012482 382.12186241 C100.0066229 382.11588234 95.14319152 382.09927463 90.27972412 382.08052063 C88.60426716 382.07418463 86.92881016 382.06785899 85.25335312 382.06154346 C84.41469192 382.05837765 83.57603072 382.05521184 82.71195555 382.0519501 C71.41149852 382.01015051 60.11107609 381.97695899 48.81054688 381.96459961 C41.1587764 381.95614564 33.50718349 381.9333901 25.85550189 381.89524394 C21.82507753 381.87572997 17.79491695 381.86299467 13.76444244 381.86807823 C-42.35955013 381.925412 -92.03988332 365.08469774 -132.3671875 324.93164062 C-132.90617676 324.39007324 -133.44516602 323.84850586 -134.00048828 323.29052734 C-135.25539063 322.035625 -135.25539063 322.035625 -136.53564453 320.75537109 C-169.9751828 285.37379067 -187.24430551 235.11551676 -186.18408203 186.86474609 C-184.83769835 148.28792663 -173.45233541 111.84988452 -151.00048828 80.29052734 C-150.59507812 79.71689453 -150.18966797 79.14326172 -149.77197266 78.55224609 C-133.7337594 56.13549631 -112.90515307 37.90405289 -89.00048828 24.29052734 C-88.32066895 23.90010254 -87.64084961 23.50967773 -86.94042969 23.10742188 C-59.87598305 7.73548845 -31.09037846 -0.024685 0 0 Z " fill="#FFFFFF" transform="translate(602.00048828125,1749.70947265625)"/>
<path d="M0 0 C6.41803985 0.02300814 12.83541828 0.00947662 19.25343513 -0.01428986 C24.25341738 -0.02878514 29.25324397 -0.02412844 34.25323105 -0.01377869 C36.62049313 -0.0111332 38.98776988 -0.01430333 41.3550148 -0.0236969 C62.92969994 -0.09069371 79.78981487 2.89086816 95.79345703 18.59960938 C107.45069997 31.07402671 112.41757767 46.48054771 112.55517578 63.35351562 C111.81109552 81.41606398 105.20499353 95.79676407 92.52392578 108.52148438 C91.90904297 109.15957031 91.29416016 109.79765625 90.66064453 110.45507812 C80.83873973 119.89840844 67.61500097 124.81364879 54.13037109 124.82446289 C52.93322731 124.83712189 52.93322731 124.83712189 51.7118988 124.85003662 C49.09194265 124.87566617 46.4720997 124.88793473 43.85205078 124.90039062 C42.00566764 124.91660239 40.15929281 124.93378611 38.31292725 124.95188904 C33.45452805 124.9974658 28.5961166 125.03228818 23.73760986 125.06408691 C16.00679319 125.11598975 8.27610423 125.18231873 0.54543304 125.25230217 C-2.12161729 125.2746464 -4.78865342 125.29124108 -7.45574951 125.30702209 C-30.07707363 125.39162224 -30.07707363 125.39162224 -52.53857422 127.77148438 C-53.35036133 127.89934326 -54.16214844 128.02720215 -54.99853516 128.15893555 C-88.15209044 133.68132671 -119.60804881 148.08350508 -145.47607422 169.52148438 C-146.06404785 170.00794434 -146.65202148 170.4944043 -147.2578125 170.99560547 C-184.39271815 201.90700327 -208.97279979 245.4472788 -215.47607422 293.52148438 C-215.56888672 294.16013428 -215.66169922 294.79878418 -215.75732422 295.45678711 C-222.35822327 345.86525998 -207.10302579 396.73295242 -176.72607422 436.95898438 C-161.05861357 457.24684322 -141.62102333 473.9044501 -119.30859375 486.48779297 C-118.10226547 487.16826112 -116.89996283 487.85592394 -115.70214844 488.55126953 C-90.91432043 502.9209253 -62.21094245 510.85238627 -33.63623047 512.08862305 C-32.27506355 512.15008782 -32.27506355 512.15008782 -30.88639832 512.2127943 C-22.22822586 512.57747792 -13.5763171 512.67151887 -4.91143799 512.69014931 C-1.24646601 512.70009306 2.41835317 512.72596294 6.08325195 512.75046825 C12.84910595 512.79546371 19.61486287 512.83387363 26.38085938 512.84741211 C31.14503295 512.85755549 35.90876279 512.88700184 40.67276001 512.92873192 C42.46502312 512.94091653 44.25734899 512.94618653 46.0496521 512.94393349 C64.67879482 512.92623947 80.22949298 516.88975516 93.89892578 530.33398438 C98.69469709 535.25664412 102.50126539 540.31406508 105.52392578 546.52148438 C106.21421875 547.88853516 106.21421875 547.88853516 106.91845703 549.28320312 C114.06098158 564.70035266 114.23350652 582.50123926 108.73486328 598.47070312 C101.84686616 615.82401201 89.82003904 627.19795526 72.88720703 634.69726562 C65.73064775 637.19318961 59.35552668 637.81904827 51.82641602 637.81201172 C50.78264297 637.81872894 49.73886993 637.82544617 48.66346741 637.83236694 C45.21976911 637.85132012 41.77626674 637.85527257 38.33251953 637.85742188 C35.9071495 637.86386127 33.48178021 637.87059045 31.05641174 637.87759399 C25.96149912 637.88956706 20.86665421 637.89327574 15.77172852 637.89208984 C10.60589406 637.89192853 5.44041882 637.90561357 0.2746582 637.93310547 C-88.32159225 638.39773719 -169.17244452 616.83880979 -236.03076172 555.74414062 C-237.60197816 554.31599022 -239.18943658 552.9053987 -240.79638672 551.51757812 C-252.45862435 541.3756652 -263.02034354 529.73098925 -272.47607422 517.52148438 C-272.91983398 516.95558594 -273.36359375 516.3896875 -273.82080078 515.80664062 C-326.61139839 448.27465234 -349.36821557 362.98908506 -339.51123047 278.11914062 C-329.30273177 199.29979866 -287.48097128 121.20664683 -224.41357422 71.83398438 C-222.66572302 70.48757202 -220.91284172 69.14812797 -219.15673828 67.8125 C-217.54611435 66.57528627 -215.95964734 65.30681498 -214.37451172 64.03710938 C-152.03640068 14.48225655 -77.6032696 -0.28138154 0 0 Z " fill="#FFFFFF" transform="translate(2584.47607421875,1751.478515625)"/>
</svg>
